<?xml version="1.0" standalone="no"?>
<!DOCTYPE svg PUBLIC "-//W3C//DTD SVG 20010904//EN"
 "http://www.w3.org/TR/2001/REC-SVG-20010904/DTD/svg10.dtd">
<svg version="1.0" xmlns="http://www.w3.org/2000/svg"
 width="500.000000pt" height="500.000000pt" viewBox="0 0 500.000000 500.000000"
 preserveAspectRatio="xMidYMid meet">

<g transform="translate(0.000000,500.000000) scale(0.100000,-0.100000)"
fill="#000000" stroke="none">
<path d="M2427 3948 c15 -22 17 -179 2 -189 -9 -5 18 -9 69 -9 79 0 82 1 82
23 -1 20 -2 20 -11 5 -7 -13 -23 -18 -54 -18 l-45 0 0 46 0 46 35 -4 c27 -3
35 0 35 12 0 11 -10 15 -37 15 -37 0 -38 1 -38 35 0 34 2 35 40 38 29 3 43 -1
52 -14 12 -17 13 -16 13 4 0 21 -4 22 -76 22 -59 0 -74 -3 -67 -12z"/>
<path d="M2188 3924 c-53 -28 -72 -98 -43 -154 19 -36 43 -50 90 -50 60 0 92
23 97 70 3 35 1 40 -17 40 -11 0 -26 -4 -33 -9 -11 -7 -11 -9 2 -14 26 -10 20
-56 -9 -67 -54 -20 -115 34 -115 101 0 66 65 108 115 75 24 -16 25 -15 25 4 0
17 -6 20 -42 20 -24 -1 -55 -7 -70 -16z"/>
<path d="M2787 3929 c16 -20 -25 -189 -46 -189 -23 0 -1 -16 32 -24 19 -5 27
-3 22 4 -4 6 -4 29 0 51 10 57 35 48 59 -21 11 -30 20 -56 20 -56 1 -1 11 -5
23 -8 l22 -7 -19 39 c-33 68 -34 87 -7 99 55 25 34 85 -36 103 -23 6 -51 14
-62 17 -16 5 -18 3 -8 -8z m84 -29 c38 -21 18 -80 -27 -80 -31 0 -35 10 -23
53 11 39 18 43 50 27z"/>
<path d="M1918 3726 l-3 -123 24 10 c13 6 18 13 12 15 -6 2 -11 18 -11 36 0
27 6 35 36 50 36 17 37 16 61 -6 13 -12 21 -28 19 -35 -4 -8 6 -7 30 5 20 9
30 18 22 21 -7 2 -50 37 -94 77 -45 41 -84 74 -87 74 -3 0 -7 -56 -9 -124z
m75 13 c-5 -4 -18 -10 -30 -14 -21 -6 -23 -3 -23 36 l0 43 30 -29 c17 -16 27
-32 23 -36z"/>
<path d="M3045 3754 c-38 -36 -78 -69 -88 -73 -17 -6 -16 -8 8 -19 21 -10 26
-10 23 0 -3 7 6 21 19 31 20 16 28 17 58 7 32 -11 35 -15 35 -50 0 -33 -3 -38
-17 -33 -26 9 -13 -2 22 -20 l30 -15 3 119 c2 93 0 119 -10 119 -7 -1 -44 -30
-83 -66z m65 -7 c0 -42 -7 -49 -34 -35 -31 16 -31 16 -6 43 31 33 40 32 40 -8z"/>
<path d="M1660 3695 c-30 -19 -48 -35 -39 -35 17 0 115 -137 113 -157 -2 -18
7 -16 36 7 19 15 21 20 8 20 -24 0 -64 58 -49 73 8 8 25 5 64 -11 61 -26 71
-27 86 -9 8 10 7 14 -2 14 -7 0 -34 8 -60 18 -45 17 -48 20 -42 47 8 33 -16
68 -45 68 -9 0 -40 -16 -70 -35z m88 -23 c3 -21 -22 -62 -37 -62 -3 0 -16 15
-28 34 -26 40 -15 59 32 54 23 -2 31 -9 33 -26z"/>
<path d="M3314 3711 c6 -10 -73 -125 -105 -152 -18 -16 -18 -17 6 -33 23 -15
25 -15 25 1 0 10 10 31 23 47 21 26 25 27 45 15 12 -8 22 -20 22 -28 0 -11 3
-11 15 -1 20 17 19 30 -4 30 -10 0 -24 7 -31 15 -9 11 -8 20 10 45 12 16 23
30 26 30 17 0 64 -47 64 -64 0 -17 2 -18 10 -6 15 23 14 25 -45 69 -53 40 -72
50 -61 32z"/>
<path d="M2380 3624 c-14 -2 -52 -9 -85 -15 -191 -33 -390 -132 -549 -272
-153 -135 -289 -358 -343 -562 -24 -90 -26 -117 -27 -280 0 -163 3 -189 26
-276 54 -201 145 -363 284 -508 220 -231 500 -351 819 -351 320 0 598 119 819
351 139 145 230 308 284 508 23 86 26 114 26 276 0 164 -3 189 -27 280 -37
136 -128 318 -212 422 -170 211 -397 352 -659 409 -69 15 -305 27 -356 18z
m345 -30 c571 -117 962 -652 896 -1223 -32 -275 -148 -503 -355 -698 -329
-311 -819 -390 -1233 -198 -261 121 -484 363 -582 631 -49 136 -65 233 -64
394 1 199 31 327 115 495 174 346 522 583 908 619 72 6 239 -4 315 -20z"/>
<path d="M2161 3190 c-76 -18 -120 -73 -128 -158 l-6 -62 -35 0 c-126 0 -213
-104 -183 -220 15 -55 27 -70 56 -70 36 0 51 25 37 64 -34 92 6 136 122 136
87 0 96 10 96 104 0 66 3 76 26 100 29 29 60 32 111 14 28 -10 36 -10 49 4 50
50 -50 111 -145 88z"/>
<path d="M2775 3193 c-73 -16 -106 -57 -72 -91 14 -13 22 -14 55 -4 58 18 76
15 106 -14 23 -24 26 -34 26 -100 0 -94 9 -104 96 -104 118 0 156 -42 122
-136 -14 -39 1 -64 38 -64 45 0 74 84 54 159 -22 81 -91 131 -184 131 -35 0
-36 1 -36 38 0 103 -55 170 -150 184 -19 3 -44 4 -55 1z"/>
<path d="M2420 3041 c-57 -18 -108 -52 -153 -100 -49 -52 -55 -69 -35 -89 20
-20 35 -14 99 43 55 49 128 85 174 85 46 0 119 -36 174 -85 34 -30 67 -55 74
-55 18 0 37 21 37 40 0 23 -97 114 -150 141 -49 24 -173 36 -220 20z"/>
<path d="M2045 2717 c-72 -73 -95 -128 -95 -223 0 -90 29 -161 94 -230 56 -58
87 -68 109 -32 9 13 1 27 -40 72 -52 56 -93 142 -93 191 0 49 39 127 89 180
28 30 51 61 51 69 0 14 -28 36 -46 36 -5 0 -36 -28 -69 -63z"/>
<path d="M2868 2769 c-29 -16 -21 -37 33 -94 50 -53 89 -131 89 -180 0 -49
-41 -135 -93 -191 -41 -45 -49 -59 -40 -72 21 -34 53 -26 104 27 69 71 91 121
97 212 6 111 -14 166 -92 246 -65 66 -70 69 -98 52z"/>
<path d="M1836 2295 c-27 -28 -40 -95 -27 -144 23 -88 82 -131 176 -131 l45 0
0 -48 c0 -111 83 -189 188 -178 61 5 102 28 102 56 0 28 -29 53 -54 45 -60
-20 -95 -17 -120 9 -23 22 -26 33 -26 99 0 97 -10 107 -109 107 -64 0 -75 3
-97 26 -26 25 -29 60 -9 120 4 14 1 27 -10 38 -21 20 -39 20 -59 1z"/>
<path d="M3115 2294 c-11 -11 -14 -24 -10 -38 20 -60 17 -95 -9 -120 -22 -23
-33 -26 -93 -26 -101 0 -113 -12 -113 -106 0 -67 -3 -78 -26 -100 -25 -26 -60
-29 -120 -9 -25 8 -54 -17 -54 -45 0 -28 41 -51 102 -56 106 -11 188 67 188
178 l0 48 48 0 c124 1 204 102 173 218 -18 67 -53 89 -86 56z"/>
<path d="M2236 2134 c-26 -26 -19 -45 37 -98 74 -70 140 -98 232 -98 92 0 161
29 234 99 54 53 64 85 31 103 -16 9 -27 3 -71 -36 -64 -57 -141 -94 -194 -94
-53 0 -130 37 -194 94 -28 25 -53 46 -56 46 -2 0 -11 -7 -19 -16z"/>
<path d="M3479 3558 l-24 -20 26 6 c19 4 32 0 44 -15 18 -19 18 -21 -46 -85
-35 -35 -70 -62 -77 -59 -8 3 -6 -5 5 -20 20 -27 33 -32 33 -12 0 12 71 85
113 116 15 12 20 11 37 -4 15 -14 17 -22 9 -43 -10 -26 -10 -26 11 -7 11 10
19 22 18 26 -2 3 -30 36 -64 72 l-61 64 -24 -19z"/>
<path d="M1410 3478 c-44 -51 -67 -83 -53 -75 17 11 155 -113 148 -132 -2 -9
22 13 55 48 47 50 58 67 49 77 -16 20 -31 17 -25 -4 4 -11 -5 -31 -23 -52
l-30 -35 -32 32 c-32 32 -32 33 -14 53 10 11 24 20 32 20 17 0 8 17 -17 30
-15 8 -17 6 -13 -8 2 -10 -5 -26 -16 -37 -21 -18 -22 -18 -46 5 -14 13 -25 29
-25 35 0 17 44 55 64 55 15 0 16 3 6 15 -17 20 -20 19 -60 -27z"/>
<path d="M3680 3356 c0 -20 -138 -119 -156 -112 -12 5 -11 0 3 -24 17 -30 35
-41 31 -19 -4 18 141 119 159 112 12 -5 9 3 -7 25 -27 36 -30 38 -30 18z"/>
<path d="M1226 3219 c-13 -23 -15 -30 -5 -27 15 5 134 -64 160 -93 15 -16 18
-13 54 48 37 63 38 66 20 79 -28 21 -41 17 -20 -6 16 -18 16 -21 -5 -55 -12
-19 -25 -33 -28 -32 -79 43 -152 92 -154 104 -2 9 -10 3 -22 -18z"/>
<path d="M3776 3211 c-4 -6 -43 -29 -85 -51 -59 -29 -81 -36 -90 -27 -15 15
-13 -3 4 -33 9 -16 14 -19 15 -10 0 16 130 87 130 71 0 -4 -18 -48 -40 -96
-23 -48 -40 -91 -38 -96 2 -4 41 10 87 32 46 21 90 39 97 39 17 0 17 8 -1 40
-13 23 -14 23 -15 5 0 -15 -16 -29 -56 -48 -31 -16 -58 -26 -60 -24 -3 2 14
43 37 90 30 63 38 90 31 103 -6 11 -11 13 -16 5z"/>
<path d="M1151 3069 c-14 -40 -14 -44 2 -32 16 13 175 -53 179 -75 2 -9 10 1
21 22 17 36 17 37 -1 32 -22 -7 -161 48 -178 70 -10 12 -14 9 -23 -17z"/>
<path d="M1100 2940 c0 -8 -3 -26 -6 -40 -4 -19 -3 -21 4 -11 9 12 19 13 69 2
32 -7 61 -15 66 -18 4 -2 -32 -24 -81 -48 -58 -28 -91 -50 -94 -63 -4 -15 -1
-18 13 -15 22 6 158 -25 177 -40 15 -12 17 -10 26 28 6 26 6 28 -6 13 -12 -16
-17 -16 -80 -1 -38 9 -68 20 -68 24 0 3 43 26 95 50 52 24 95 47 95 50 0 4
-43 17 -95 29 -61 14 -98 28 -105 38 -8 14 -9 14 -10 2z"/>
<path d="M3749 2881 c-36 -36 -39 -90 -8 -140 17 -28 24 -32 48 -28 16 3 34 1
41 -6 10 -10 12 -8 6 6 -3 10 -6 28 -6 38 0 19 -2 19 -22 5 -45 -32 -68 -16
-68 45 0 36 37 74 80 83 80 16 143 -71 90 -124 -15 -15 -16 -20 -6 -20 28 0
47 31 40 64 -16 74 -53 106 -125 106 -31 0 -47 -7 -70 -29z"/>
<path d="M1110 2370 c-24 -24 -25 -48 -4 -78 19 -27 64 -29 87 -4 24 26 21 68
-5 86 -30 21 -54 20 -78 -4z m74 -6 c19 -18 21 -55 4 -72 -31 -31 -88 -4 -88
42 0 20 28 46 50 46 10 0 26 -7 34 -16z"/>
<path d="M1135 2341 c-8 -15 3 -31 21 -31 9 0 14 7 12 17 -4 20 -24 28 -33 14z"/>
<path d="M3822 2374 c-14 -10 -22 -25 -21 -42 1 -26 1 -26 10 5 15 51 83 57
95 8 13 -51 -46 -88 -86 -52 -12 10 -12 9 -1 -5 19 -26 66 -23 85 4 21 30 20
54 -4 78 -24 24 -48 25 -78 4z"/>
<path d="M3847 2344 c-14 -14 -7 -35 11 -32 9 2 17 10 17 17 0 16 -18 25 -28
15z"/>
<path d="M1325 1933 c-22 -12 -35 -23 -30 -22 6 0 21 6 35 14 34 20 36 19 50
-15 7 -17 15 -29 17 -26 2 2 -4 19 -14 38 l-18 34 -40 -23z"/>
<path d="M3680 1875 c36 -19 70 -34 75 -34 6 0 -19 15 -55 34 -36 19 -69 34
-75 34 -5 0 19 -15 55 -34z"/>
<path d="M3795 1830 c-3 -5 -1 -10 4 -10 6 0 11 5 11 10 0 6 -2 10 -4 10 -3 0
-8 -4 -11 -10z"/>
<path d="M1455 1780 c10 -11 20 -20 23 -20 3 0 -3 9 -13 20 -10 11 -20 20 -23
20 -3 0 3 -9 13 -20z"/>
<path d="M1482 1725 c0 -16 2 -22 5 -12 2 9 2 23 0 30 -3 6 -5 -1 -5 -18z"/>
<path d="M3525 1743 c6 -6 44 -33 85 -61 l76 -50 38 57 c36 54 23 44 -20 -15
l-21 -29 -54 36 c-81 53 -115 74 -104 62z"/>
<path d="M1292 1710 c0 -19 2 -27 5 -17 2 9 2 25 0 35 -3 9 -5 1 -5 -18z"/>
<path d="M1315 1650 c10 -11 20 -20 23 -20 3 0 -3 9 -13 20 -10 11 -20 20 -23
20 -3 0 3 -9 13 -20z"/>
<path d="M1440 1649 c-22 -18 -22 -19 -3 -10 12 6 25 16 28 21 9 15 3 12 -25
-11z"/>
<path d="M1506 1599 c-25 -28 -46 -56 -46 -62 0 -6 7 0 16 13 10 14 33 42 53
63 19 20 32 37 29 37 -3 0 -27 -23 -52 -51z"/>
<path d="M1368 1623 c6 -2 18 -2 25 0 6 3 1 5 -13 5 -14 0 -19 -2 -12 -5z"/>
<path d="M3520 1615 c0 -5 5 -17 10 -25 5 -8 10 -10 10 -5 0 6 -5 17 -10 25
-5 8 -10 11 -10 5z"/>
<path d="M1630 1495 c-24 -25 -42 -45 -39 -45 3 0 25 20 49 45 24 25 42 45 39
45 -3 0 -25 -20 -49 -45z"/>
<path d="M3556 1515 c-3 -8 -1 -15 4 -15 6 0 10 7 10 15 0 8 -2 15 -4 15 -2 0
-6 -7 -10 -15z"/>
<path d="M3290 1500 c0 -5 5 -10 11 -10 5 0 7 5 4 10 -3 6 -8 10 -11 10 -2 0
-4 -4 -4 -10z"/>
<path d="M1726 1482 c-2 -4 4 -8 14 -8 10 0 16 4 14 8 -3 4 -9 8 -14 8 -5 0
-11 -4 -14 -8z"/>
<path d="M1475 1460 c10 -11 20 -20 23 -20 3 0 -3 9 -13 20 -10 11 -20 20 -23
20 -3 0 3 -9 13 -20z"/>
<path d="M1806 1437 c3 -10 9 -15 12 -12 3 3 0 11 -7 18 -10 9 -11 8 -5 -6z"/>
<path d="M3390 1445 c0 -2 18 -14 40 -25 22 -11 40 -18 40 -15 0 2 -18 14 -40
25 -22 11 -40 18 -40 15z"/>
<path d="M1523 1433 c9 -2 23 -2 30 0 6 3 -1 5 -18 5 -16 0 -22 -2 -12 -5z"/>
<path d="M1662 1388 c-37 -56 -44 -68 -38 -68 2 0 14 16 26 35 19 31 24 34 39
23 14 -12 15 -11 2 5 -11 14 -11 20 -1 32 7 8 10 15 7 15 -3 0 -19 -19 -35
-42z"/>
<path d="M3148 1403 c7 -3 16 -2 19 1 4 3 -2 6 -13 5 -11 0 -14 -3 -6 -6z"/>
<path d="M3192 1385 c9 -11 18 -31 21 -45 l4 -25 2 26 c0 16 -8 33 -21 45 -23
19 -23 19 -6 -1z"/>
<path d="M3081 1373 c-20 -17 -21 -19 -6 -38 16 -20 16 -20 6 1 -9 18 -7 25
12 37 12 9 19 16 16 16 -4 1 -16 -7 -28 -16z"/>
<path d="M1806 1363 c-6 -14 -5 -15 5 -6 7 7 10 15 7 18 -3 3 -9 -2 -12 -12z"/>
<path d="M3320 1365 c0 -8 2 -15 4 -15 2 0 6 7 10 15 3 8 1 15 -4 15 -6 0 -10
-7 -10 -15z"/>
<path d="M1717 1359 c6 -8 13 -37 15 -64 l3 -50 5 52 c4 44 2 53 -15 64 -17
10 -18 10 -8 -2z"/>
<path d="M1886 1354 c-25 -24 -19 -47 24 -89 21 -21 41 -48 43 -59 4 -19 4
-19 6 2 1 16 -12 35 -39 59 -55 50 -52 84 10 96 l25 4 -27 2 c-15 0 -34 -6
-42 -15z"/>
<path d="M1975 1340 c10 -11 20 -20 23 -20 3 0 -3 9 -13 20 -10 11 -20 20 -23
20 -3 0 3 -9 13 -20z"/>
<path d="M3331 1324 c0 -11 3 -14 6 -6 3 7 2 16 -1 19 -3 4 -6 -2 -5 -13z"/>
<path d="M2945 1315 c-16 -8 -25 -14 -20 -15 6 0 26 -41 44 -90 18 -50 35 -89
37 -87 2 2 -10 40 -26 86 -17 45 -30 85 -30 90 0 4 10 13 23 19 32 16 7 13
-28 -3z"/>
<path d="M2875 1290 c-13 -6 -15 -9 -5 -9 8 0 22 4 30 9 18 12 2 12 -25 0z"/>
<path d="M3157 1284 c-24 -13 -31 -13 -44 -2 -14 11 -14 9 1 -19 17 -33 30
-45 20 -19 -4 9 6 20 25 31 29 14 33 14 71 -5 22 -11 40 -18 40 -15 0 4 -75
46 -82 45 -2 -1 -16 -8 -31 -16z"/>
<path d="M2200 1255 c-11 -13 -10 -14 4 -9 9 3 16 10 16 15 0 13 -6 11 -20 -6z"/>
<path d="M2690 1237 c23 -9 41 -25 52 -48 10 -19 18 -26 18 -17 0 26 -42 67
-75 73 -28 5 -27 4 5 -8z"/>
<path d="M2355 1207 c-4 -19 -5 -45 -2 -58 2 -15 5 -7 6 19 1 48 5 51 33 20
16 -19 15 -16 -3 12 -12 19 -24 37 -25 39 -2 1 -6 -13 -9 -32z"/>
<path d="M2590 1232 c0 -5 14 -7 30 -4 17 2 30 6 30 8 0 2 -13 4 -30 4 -16 0
-30 -4 -30 -8z"/>
<path d="M1821 1223 c-1 -13 46 -53 63 -53 6 0 -3 9 -20 19 -18 11 -34 25 -37
33 -3 8 -6 9 -6 1z"/>
<path d="M2169 1213 c-13 -16 -12 -17 4 -4 16 13 21 21 13 21 -2 0 -10 -8 -17
-17z"/>
<path d="M2512 1205 c0 -16 2 -22 5 -12 2 9 2 23 0 30 -3 6 -5 -1 -5 -18z"/>
<path d="M2602 1165 c0 -16 2 -22 5 -12 2 9 2 23 0 30 -3 6 -5 -1 -5 -18z"/>
<path d="M1915 1170 c-13 -6 -15 -9 -5 -9 8 0 22 4 30 9 18 12 2 12 -25 0z"/>
<path d="M2232 1145 c0 -16 2 -22 5 -12 2 9 2 23 0 30 -3 6 -5 -1 -5 -18z"/>
<path d="M2104 1123 c-15 -20 -23 -33 -16 -29 13 8 56 66 49 66 -3 0 -17 -17
-33 -37z"/>
<path d="M2440 1115 c17 -25 33 -45 36 -45 3 0 -9 20 -26 45 -17 25 -33 45
-36 45 -3 0 9 -20 26 -45z"/>
<path d="M2242 1090 c0 -14 2 -19 5 -12 2 6 2 18 0 25 -3 6 -5 1 -5 -13z"/>
<path d="M2612 1085 c0 -16 2 -22 5 -12 2 9 2 23 0 30 -3 6 -5 -1 -5 -18z"/>
<path d="M2742 1090 c-18 -29 -15 -38 4 -12 9 13 14 25 12 27 -2 2 -9 -5 -16
-15z"/>
<path d="M2500 1081 c0 -11 -5 -21 -11 -23 -7 -2 -5 -9 5 -17 14 -12 16 -9 16
23 0 20 -2 36 -5 36 -3 0 -5 -9 -5 -19z"/>
<path d="M2668 1043 c7 -3 16 -2 19 1 4 3 -2 6 -13 5 -11 0 -14 -3 -6 -6z"/>
</g>
</svg>
